<svg width="81" height="82" viewBox="0 0 81 82" fill="none" xmlns="http://www.w3.org/2000/svg">
<path d="M79.4381 41C79.4381 63.1096 61.8611 81 40.219 81C18.577 81 1 63.1096 1 41C1 18.8904 18.577 1 40.219 1C61.8611 1 79.4381 18.8904 79.4381 41Z" fill="#5F5F5F" stroke="white" stroke-width="2"/>
<path d="M47.3751 38.3058L52.571 38.2803C53.0646 38.2477 54.2994 38.1138 54.6446 37.7569C55.0614 37.326 55.2031 35.2436 55.2547 34.6559L55.3541 27.9398C55.3541 27.0795 55.2895 26.1366 55.4514 25.2886C55.6596 24.1983 57.1663 24.2899 57.2121 25.5974L57.2045 32.9924C57.2047 36.9632 57.1878 39.9653 52.4954 40.0934L36.0509 40.0984C33.8305 40.0981 31.5358 40.1196 29.3959 39.424C27.9737 38.9616 28.0407 38.146 28.0453 36.8547L28.0473 35.0862C28.0527 34.8334 28.0874 34.5865 28.0841 34.3321C27.2376 34.6513 25.7128 36.0854 25.0342 35.7814C24.5601 35.5691 24.3833 34.9811 24.6262 34.5316C25.0482 33.7506 27.2881 32.6035 28.1664 32.3465L28.3162 22.8058L27.8221 22.474C26.9894 21.8494 26.6071 20.5594 27.2752 19.6802C28.0607 18.6466 29.7071 18.8709 30.8395 18.8713L52.7946 18.8731C53.5634 18.8727 54.3814 18.9286 55.1421 18.8296C56.3639 18.7973 57.7368 18.8369 58.7114 19.6869C59.5205 20.3925 59.8331 21.4597 59.0202 22.2809C58.2414 23.0677 56.7511 22.8926 55.735 22.8978L35.3153 22.9893L30.0997 23.1723L29.9908 31.4058C31.2966 30.86 32.8199 29.3038 33.788 28.3166C34.4965 27.5942 35.4698 26.3635 36.6355 26.6519C38.7132 27.1662 38.694 30.4357 39.6411 31.9852C40.2874 31.7924 40.8634 31.5244 41.4515 31.1945L43.3547 30.0204C43.831 29.7153 44.345 29.3604 44.8716 29.1541C45.9663 28.7254 46.842 30.0516 45.8921 30.6972C45.5286 30.9442 45.1203 31.1335 44.7451 31.3637C43.6583 32.0302 40.5584 34.1055 39.2218 33.8135C37.7325 33.4881 37.1971 29.7794 36.328 28.4796C36.0268 28.6016 35.6997 28.9907 35.4679 29.2207L34.0513 30.6242C32.9803 31.6434 31.304 32.9875 29.9182 33.5122L29.7968 37.7512C30.5609 38.0115 31.401 38.113 32.2022 38.1851L33.6206 38.3007L47.3751 38.3058ZM29.3258 20.7032C28.1952 20.7643 29.0322 21.3197 29.7179 21.3319L37.0538 21.1666L56.7577 21.0902C57.0243 21.0874 57.2927 21.0934 57.5557 21.0447C57.0445 20.7396 56.4746 20.7362 55.895 20.7042L29.3258 20.7032Z" fill="white"/>
<path d="M55.6035 50.3653L55.4882 50.3824C50.68 50.991 47.5624 42.2901 53.6565 41.6505C53.8807 41.6131 54.1477 41.6264 54.3765 41.6285C60.3424 41.6816 60.0584 49.6113 55.6035 50.3653ZM53.9306 43.4359C52.6396 43.5073 52.04 43.9767 52.1608 45.3253C52.3195 47.0972 53.3424 48.6828 55.2683 48.5432C57.2237 48.2544 57.645 45.0413 56.0867 43.9402C55.4792 43.5111 54.6573 43.4146 53.9306 43.4359Z" fill="white"/>
<path d="M39.149 50.4632L39.054 50.4759C36.4539 50.755 34.3797 48.4132 34.1754 45.9446C33.9629 43.3758 34.995 41.8837 37.6064 41.6816C43.8187 41.1261 43.8923 49.6951 39.149 50.4632ZM37.3283 43.4931C36.6085 43.6184 36.1848 43.9491 36.0046 44.6527L35.9894 44.7107C35.5816 46.3562 37.2559 49.4585 39.2316 48.6004C40.4869 47.9309 41.1162 45.8788 40.4443 44.6182C39.9142 43.6236 38.3372 43.4076 37.3283 43.4931Z" fill="white"/>
<path d="M22.4809 50.6665L22.408 50.6748C18.8364 50.9142 16.2347 45.5527 18.5333 42.8686C19.2239 42.0622 20.2942 41.8244 21.3067 41.7432C27.5363 41.2221 27.5069 50.1052 22.4809 50.6665ZM21.1 43.5563C18.039 43.9222 19.9344 49.1768 22.4177 48.8498L22.7143 48.786C25.0765 47.7618 25.0446 43.121 21.1 43.5563Z" fill="white"/>
<path d="M56.0109 58.8227L55.9809 58.825C53.7537 58.9908 50.1571 58.9372 48.3997 57.4096C47.064 56.2485 47.2327 54.5273 48.3471 53.268C49.8281 51.5945 52.1615 50.8571 54.3313 50.7262C56.6147 50.6281 59.1171 50.8885 60.8992 52.4707C61.9291 53.3851 63.7495 55.6742 62.4786 57.0524C61.2597 58.3742 57.7271 58.7481 56.0109 58.8227ZM54.5678 52.5098C52.9454 52.6126 50.8137 53.1667 49.692 54.4474C48.6016 55.6923 49.6757 56.4735 50.9799 56.7639C52.4977 57.1019 54.2101 57.1297 55.7552 57.0448L57.0446 56.9485C58.1104 56.8188 60.2166 56.4756 61.0754 55.8398C60.4951 53.3573 56.7803 52.3055 54.5678 52.5098Z" fill="white"/>
<path d="M39.304 58.8423C37.1545 58.9721 33.8255 58.9383 32.2229 57.5154C30.8105 56.2614 30.8087 54.6429 32.0886 53.2622C33.6806 51.5447 36.0555 50.9147 38.323 50.8189C40.7466 50.7429 42.5806 51.1678 44.5016 52.8412C46.803 54.8459 47.3856 57.0189 44.1755 58.0784C43.0071 58.4639 41.8104 58.685 40.586 58.7876L39.304 58.8423ZM38.3702 52.6025C36.9991 52.6979 35.6858 52.9893 34.4809 53.6762C33.9606 53.9728 32.54 55.0093 32.972 55.7468L32.9936 55.7852C33.7345 57.062 37.5654 57.2088 39.0765 57.0904C40.2082 57.0581 43.6034 56.6834 44.4461 55.8669L44.4835 55.8217C43.7047 53.5864 40.5256 52.5345 38.3702 52.6025Z" fill="white"/>
<path d="M23.3722 59.4167C20.9259 59.4812 16.5812 59.64 15.0603 57.2681C14.2624 56.0238 14.5535 54.7541 15.498 53.7048C17.0278 52.0053 19.2804 51.2047 21.5209 51.0949C23.8249 50.9673 26.1803 51.4152 28.0277 52.8619C30.9828 55.1759 31.1599 57.5588 27.4659 58.7017C26.11 59.1212 24.7826 59.3068 23.3722 59.4167ZM21.9028 52.9098C20.5194 52.9771 19.2598 53.2877 18.0549 53.987C15.6809 55.3649 16.0393 56.9473 18.7349 57.4208C20.0808 57.6572 21.5859 57.7136 22.9559 57.6081C24.2686 57.5506 27.3927 57.2407 28.3683 56.187C27.7596 53.8007 24.0181 52.8548 21.9028 52.9098Z" fill="white"/>
</svg>
