<svg width="91" height="96" viewBox="0 0 91 96" fill="none" xmlns="http://www.w3.org/2000/svg">
<path d="M79.4381 41C79.4381 63.1096 61.8611 81 40.219 81C18.577 81 1 63.1096 1 41C1 18.8904 18.577 1 40.219 1C61.8611 1 79.4381 18.8904 79.4381 41Z" fill="#5F5F5F" stroke="white" stroke-width="2"/>
<path d="M47.3751 38.3058L52.571 38.2803C53.0646 38.2477 54.2994 38.1138 54.6446 37.7569C55.0614 37.326 55.2031 35.2436 55.2547 34.6559L55.3541 27.9398C55.3541 27.0795 55.2895 26.1366 55.4514 25.2886C55.6596 24.1983 57.1663 24.2899 57.2121 25.5974L57.2045 32.9924C57.2047 36.9632 57.1878 39.9653 52.4954 40.0934L36.0509 40.0984C33.8305 40.0981 31.5358 40.1196 29.3959 39.424C27.9737 38.9616 28.0407 38.146 28.0453 36.8547L28.0473 35.0862C28.0527 34.8334 28.0874 34.5865 28.0841 34.3321C27.2376 34.6513 25.7128 36.0854 25.0342 35.7814C24.5601 35.5691 24.3833 34.9811 24.6262 34.5316C25.0482 33.7506 27.2881 32.6035 28.1664 32.3465L28.3162 22.8058L27.8221 22.474C26.9894 21.8494 26.6071 20.5594 27.2752 19.6802C28.0607 18.6466 29.7071 18.8709 30.8395 18.8713L52.7946 18.8731C53.5634 18.8727 54.3814 18.9286 55.1421 18.8296C56.3639 18.7973 57.7368 18.8369 58.7114 19.6869C59.5205 20.3925 59.8331 21.4597 59.0202 22.2809C58.2414 23.0677 56.7511 22.8926 55.735 22.8978L35.3153 22.9893L30.0997 23.1723L29.9908 31.4058C31.2966 30.86 32.8199 29.3038 33.788 28.3166C34.4965 27.5942 35.4698 26.3635 36.6355 26.6519C38.7132 27.1662 38.694 30.4357 39.6411 31.9852C40.2874 31.7924 40.8634 31.5244 41.4515 31.1945L43.3547 30.0204C43.831 29.7153 44.345 29.3604 44.8716 29.1541C45.9663 28.7254 46.842 30.0516 45.8921 30.6972C45.5286 30.9442 45.1203 31.1335 44.7451 31.3637C43.6583 32.0302 40.5584 34.1055 39.2218 33.8135C37.7325 33.4881 37.1971 29.7794 36.328 28.4796C36.0268 28.6016 35.6997 28.9907 35.4679 29.2207L34.0513 30.6242C32.9803 31.6434 31.304 32.9875 29.9182 33.5122L29.7968 37.7512C30.5609 38.0115 31.401 38.113 32.2022 38.1851L33.6206 38.3007L47.3751 38.3058ZM29.3258 20.7032C28.1952 20.7643 29.0322 21.3197 29.7179 21.3319L37.0538 21.1666L56.7577 21.0902C57.0243 21.0874 57.2927 21.0934 57.5557 21.0447C57.0445 20.7396 56.4746 20.7362 55.895 20.7042L29.3258 20.7032Z" fill="white"/>
<path d="M55.6035 50.3653L55.4882 50.3824C50.68 50.991 47.5624 42.2901 53.6565 41.6505C53.8807 41.6131 54.1477 41.6264 54.3765 41.6285C60.3424 41.6816 60.0584 49.6113 55.6035 50.3653ZM53.9306 43.4359C52.6396 43.5073 52.04 43.9767 52.1608 45.3253C52.3195 47.0972 53.3424 48.6828 55.2683 48.5432C57.2237 48.2544 57.645 45.0413 56.0867 43.9402C55.4792 43.5111 54.6573 43.4146 53.9306 43.4359Z" fill="white"/>
<path d="M39.149 50.4632L39.054 50.4759C36.4539 50.755 34.3797 48.4132 34.1754 45.9446C33.9629 43.3758 34.995 41.8837 37.6064 41.6816C43.8187 41.1261 43.8923 49.6951 39.149 50.4632ZM37.3283 43.4931C36.6085 43.6184 36.1848 43.9491 36.0046 44.6527L35.9894 44.7107C35.5816 46.3562 37.2559 49.4585 39.2316 48.6004C40.4869 47.9309 41.1162 45.8788 40.4443 44.6182C39.9142 43.6236 38.3372 43.4076 37.3283 43.4931Z" fill="white"/>
<path d="M22.4809 50.6665L22.408 50.6748C18.8364 50.9142 16.2347 45.5527 18.5333 42.8686C19.2239 42.0622 20.2942 41.8244 21.3067 41.7432C27.5363 41.2221 27.5069 50.1052 22.4809 50.6665ZM21.1 43.5563C18.039 43.9222 19.9344 49.1768 22.4177 48.8498L22.7143 48.786C25.0765 47.7618 25.0446 43.121 21.1 43.5563Z" fill="white"/>
<path d="M56.0109 58.8227L55.9809 58.825C53.7537 58.9908 50.1571 58.9372 48.3997 57.4096C47.064 56.2485 47.2327 54.5273 48.3471 53.268C49.8281 51.5945 52.1615 50.8571 54.3313 50.7262C56.6147 50.6281 59.1171 50.8885 60.8992 52.4707C61.9291 53.3851 63.7495 55.6742 62.4786 57.0524C61.2597 58.3742 57.7271 58.7481 56.0109 58.8227ZM54.5678 52.5098C52.9454 52.6126 50.8137 53.1667 49.692 54.4474C48.6016 55.6923 49.6757 56.4735 50.9799 56.7639C52.4977 57.1019 54.2101 57.1297 55.7552 57.0448L57.0446 56.9485C58.1104 56.8188 60.2166 56.4756 61.0754 55.8398C60.4951 53.3573 56.7803 52.3055 54.5678 52.5098Z" fill="white"/>
<path d="M39.304 58.8423C37.1545 58.9721 33.8255 58.9383 32.2229 57.5154C30.8105 56.2614 30.8087 54.6429 32.0886 53.2622C33.6806 51.5447 36.0555 50.9147 38.323 50.8189C40.7466 50.7429 42.5806 51.1678 44.5016 52.8412C46.803 54.8459 47.3856 57.0189 44.1755 58.0784C43.0071 58.4639 41.8104 58.685 40.586 58.7876L39.304 58.8423ZM38.3702 52.6025C36.9991 52.6979 35.6858 52.9893 34.4809 53.6762C33.9606 53.9728 32.54 55.0093 32.972 55.7468L32.9936 55.7852C33.7345 57.062 37.5654 57.2088 39.0765 57.0904C40.2082 57.0581 43.6034 56.6834 44.4461 55.8669L44.4835 55.8217C43.7047 53.5864 40.5256 52.5345 38.3702 52.6025Z" fill="white"/>
<path d="M23.3722 59.4167C20.9259 59.4812 16.5812 59.64 15.0603 57.2681C14.2624 56.0238 14.5535 54.7541 15.498 53.7048C17.0278 52.0053 19.2804 51.2047 21.5209 51.0949C23.8249 50.9673 26.1803 51.4152 28.0277 52.8619C30.9828 55.1759 31.1599 57.5588 27.4659 58.7017C26.11 59.1212 24.7826 59.3068 23.3722 59.4167ZM21.9028 52.9098C20.5194 52.9771 19.2598 53.2877 18.0549 53.987C15.6809 55.3649 16.0393 56.9473 18.7349 57.4208C20.0808 57.6572 21.5859 57.7136 22.9559 57.6081C24.2686 57.5506 27.3927 57.2407 28.3683 56.187C27.7596 53.8007 24.0181 52.8548 21.9028 52.9098Z" fill="white"/>
<path d="M90.4245 77.8398C90.4245 87.3851 82.8368 95.1041 73.5 95.1041C64.1632 95.1041 56.5755 87.3851 56.5755 77.8398C56.5755 68.2945 64.1632 60.5755 73.5 60.5755C82.8368 60.5755 90.4245 68.2945 90.4245 77.8398Z" fill="#5F5F5F" stroke="white" stroke-width="1.15096"/>
<path d="M75.8662 70.5744L71.9788 70.5737C71.2518 70.5746 70.4896 70.4917 70.1123 71.2599C70.006 71.4765 69.9076 71.7967 69.6236 71.8247C69.1458 71.8718 69.2939 71.3152 69.4344 71.0441C69.9592 70.0314 70.5114 69.9055 71.6391 69.8808L75.9015 69.8789C76.8965 69.9406 77.1343 70.4478 77.6479 71.1664C77.7726 71.3409 77.9876 71.545 77.9647 71.7792C77.9462 71.9691 77.7522 72.0883 77.5728 72.0638C77.0735 71.9956 76.9397 70.714 75.8662 70.5744Z" fill="white"/>
<path d="M78.7231 85.125L72.4745 85.621C72.2856 85.6301 72.1539 85.6337 71.9659 85.6357L69.3676 85.6361C67.495 85.6191 64.5039 85.5722 63.7457 83.5219C63.6188 83.1788 63.5702 82.817 63.5358 82.4548L63.3693 80.0562C63.2614 78.4935 63.06 75.4085 63.7208 73.9769C64.0552 73.2524 64.6171 72.6829 65.3731 72.4069C65.3591 71.5224 66.3173 70.74 67.1545 70.6542C68.0666 70.5289 68.9189 71.3587 69.202 72.1776C69.2198 72.2292 70.2568 72.2535 70.5448 72.2589L75.2222 72.2908C75.3242 72.2952 75.4257 72.3096 75.5278 72.3104L77.0804 72.3111L78.5294 72.4C80.6769 72.5542 82.5086 72.8123 82.8593 75.2517L83.0623 77.4077L83.0621 79.1869C83.0199 80.5821 82.8425 82.6006 82.3714 83.9032L82.2193 84.2967C81.9376 85.0258 81.6814 84.737 81.1915 84.7915L78.7231 85.125ZM67.1674 71.3643C66.6506 71.4381 66.3209 71.7535 66.1108 72.207L67.3067 72.1209L68.4048 72.1468C68.2028 71.6707 67.7038 71.286 67.1674 71.3643ZM67.1939 72.8383C64.9131 72.9736 64.1494 73.6716 64.0032 75.9785L63.9696 77.2346C63.9693 77.6439 63.9537 78.06 63.98 78.4684L64.1523 80.8309L64.2071 82.0799C64.3205 84.1366 65.3541 84.5693 67.1396 84.7992C68.2528 84.9426 69.3694 84.948 70.4898 84.9483L73.4052 84.885L78.6276 84.4212L81.5829 84.0411C82.2624 82.4477 82.4265 79.5177 82.3829 77.8083L82.254 76.0385C82.1996 75.5349 82.1664 75.0076 81.9758 74.5334C81.4458 73.2146 79.3018 73.1324 78.1219 73.0591L76.1046 73.0092C75.9431 73.0053 75.7832 72.9724 75.6221 72.9694L70.7882 72.9691L67.6752 72.8334C67.5157 72.8337 67.3529 72.8279 67.1939 72.8383Z" fill="white"/>
<path d="M79.6176 77.0225C78.2456 77.1003 77.4062 75.8849 78.2691 74.7531C78.5514 74.3828 78.9424 74.204 79.3942 74.1455C81.2241 73.9485 81.839 76.7884 79.6176 77.0225ZM79.4566 74.843C78.3876 75.0014 78.3038 76.3909 79.5161 76.3315C79.9711 76.3031 80.3787 76.094 80.3391 75.5868L80.3275 75.4991C80.2522 75.0181 79.9195 74.82 79.4566 74.843Z" fill="white"/>
<path d="M73.3619 83.7646L73.3231 83.7685C70.9026 83.9873 68.8352 82.14 68.6267 79.7447C68.3797 76.9069 70.2107 74.5534 73.0844 74.3111L73.1004 74.3093C73.2946 74.2894 73.5053 74.3065 73.6998 74.3219C75.8688 74.4937 77.6159 76.1136 77.8093 78.315C78.0446 80.9941 76.1143 83.5312 73.3619 83.7646ZM73.0832 75.0091C69.5018 75.2519 67.9702 79.9442 70.6514 82.2657C71.3511 82.8716 72.3345 83.1357 73.2471 83.0671L73.3652 83.0554C74.526 82.9139 75.5158 82.3293 76.2392 81.4036C78.2334 78.8518 76.7079 75.0319 73.4341 75.0016C73.3194 75.0005 73.1973 74.9969 73.0832 75.0091Z" fill="white"/>
<path d="M65.4026 81.6915C65.0142 81.9425 64.8631 81.4739 64.8285 81.1761L64.7335 80.0193C64.7278 79.9273 64.7128 79.8364 64.7101 79.744L64.7091 78.7007C64.7084 77.7909 64.6949 75.9566 65.3084 75.2013C65.4479 75.0296 65.5962 74.9784 65.8106 74.9584C65.9666 74.9507 66.1661 74.9515 66.2904 75.0592C66.4369 75.1862 66.4272 75.4325 66.2995 75.5687C66.1658 75.7115 65.9475 75.6966 65.7664 75.7042C65.4852 76.3888 65.4472 77.2021 65.4198 77.9308L65.4397 80.2043L65.4968 80.9263C65.5258 81.2114 65.6368 81.4709 65.4026 81.6915Z" fill="white"/>
<path d="M73.1636 82.533C71.393 82.5363 69.8908 81.0389 69.8089 79.2845C69.7147 77.2645 71.1937 75.6272 73.2148 75.5427L73.2269 75.5422C75.1309 75.4981 76.5319 77.493 76.5409 79.2596C76.5505 81.1627 75.0089 82.5214 73.1636 82.533ZM73.0781 76.253C71.499 76.3984 70.3611 77.8072 70.5209 79.3817C70.6695 80.8457 71.8536 81.8438 73.2958 81.8354C73.4715 81.824 73.6471 81.8134 73.8196 81.7767C75.3179 81.4583 76.1108 79.9476 75.7339 78.5185C75.4002 77.2531 74.4664 76.1591 73.0781 76.253Z" fill="white"/>
<path d="M71.7267 80.0556L71.669 80.0636C71.4246 80.0917 71.2809 79.8984 71.2647 79.6739C71.1724 78.3901 71.7244 77.233 73.1243 77.1292C73.3959 77.1145 73.6742 77.3158 73.5351 77.6179C73.3984 77.9149 73.0345 77.8238 72.7826 77.9282C72.1933 78.1723 71.9412 78.7114 71.9493 79.3265C71.9529 79.6009 72.062 79.9475 71.7267 80.0556Z" fill="white"/>
<path d="M66.6599 83.8769C66.3276 83.9102 66.0095 83.6044 65.7386 83.4503C65.5429 83.339 65.3213 83.2473 65.1407 83.1135C64.8532 82.9005 64.9034 82.574 65.2198 82.4464C65.5039 82.3996 65.9026 82.7307 66.1395 82.8653C66.3418 82.9803 66.5747 83.0826 66.7598 83.221C67.0181 83.4142 66.9774 83.7591 66.6599 83.8769Z" fill="white"/>
</svg>
