<svg width="211" height="212" viewBox="0 0 211 212" fill="none" xmlns="http://www.w3.org/2000/svg">
<path d="M140.684 128.529C138.185 127.483 139.367 126.962 136.707 127.94C134.981 128.574 133.165 129.027 131.33 129.186L121.621 129.687C120.515 129.745 119.44 129.965 118.331 130.016L93.1135 130.035C91.6534 129.982 90.2291 129.714 88.7671 129.652L81.9721 129.379C80.1694 129.271 78.5249 129.19 76.7548 128.731C69.977 126.974 62.1557 120.85 58.5338 114.652C59.1911 117.749 59.7681 123.024 57.3133 125.252C54.4704 127.834 49.0273 126.709 48.0665 122.75C47.688 121.19 47.9441 119.638 47.9793 118.058L48.112 112.144C47.4497 112.657 46.5469 112.982 45.7994 113.369C37.2162 117.822 35.4855 122.797 45.1717 128.167C54.4968 133.337 65.3228 135.725 75.7552 137.394L87.879 139.057L101.072 139.824L120.755 139.494C133.193 138.598 145.807 136.668 157.785 133.127C169.951 129.531 187.764 121.934 168.071 113.346C167.026 112.891 165.919 112.503 164.912 111.971C163.189 111.06 162.97 108.745 164.784 108.347C166.346 108.004 168.632 109.222 170.021 109.833C174.43 111.773 179.478 114.197 180.761 119.34C184.967 136.189 133.798 142.815 119.626 143.609L113.81 143.734C112.873 143.763 111.954 143.931 111.017 143.957L99.31 143.748C95.9846 143.559 92.602 143.474 89.2591 143.246L83.4187 142.603C71.3117 141.094 38.3563 135.948 34.7768 122.838C32.6234 114.952 42.4075 110.444 48.2525 107.881L48.5405 93.0499L47.2061 92.3603C42.0392 89.1588 41.0395 84.7879 39.6558 79.5727L39.6219 79.4518C39.3632 78.4862 39.4073 77.2675 39.4004 76.2662L39.3849 71.4677C39.3734 69.4997 38.463 65.0053 41.0886 64.3352C43.6217 64.4038 43.2876 67.3579 43.2945 69.077L43.3801 76.1055C43.5595 79.6443 44.2652 83.3251 46.4386 86.2123C52.2968 93.9947 60.0337 87.9229 61.217 79.8301C61.4053 78.5419 61.3286 77.1864 61.3256 75.8859L61.3013 69.7916C61.2897 68.5957 61.1229 67.2224 61.3003 66.0531C61.5725 64.2567 64.8011 62.6975 65.1875 67.8995C65.3567 70.1742 65.3521 72.4117 65.3531 74.6927C65.356 81.0859 64.4624 88.9477 58.0246 92.2497C56.7985 92.8784 57.545 94.0858 57.5723 95.4416C57.8153 107.539 56.4852 108.373 65.7945 117.354C69.63 121.054 73.9264 124.337 79.363 125.023L84.9118 125.445C86.2715 125.487 87.6852 125.42 89.031 125.622L89.7782 125.738C90.8315 125.966 91.9651 125.916 93.0394 125.927L101.27 126.108L120.235 125.894C122.292 125.832 124.303 125.56 126.362 125.464L130.247 125.168C136.39 124.587 135.871 123.959 139.702 120.421C142.955 117.418 146.873 115.362 150.99 113.836C152.046 113.444 152.07 113.737 152.162 112.696C152.391 110.122 155.53 108.005 157.326 105.822C155.612 105.015 154.109 103.833 152.583 102.721C151.594 102.001 149.22 99.6889 148.594 101.911C147.195 106.88 155.215 109.148 144.343 113.652C136.293 116.987 127.578 118.124 118.956 118.835L114.996 119.223L99.9206 119.305C98.866 119.298 97.7568 119.331 96.7127 119.171L92.5533 118.763C84.7199 117.921 65.7244 115.661 60.4738 109.014C58.1872 106.12 59.3116 103.668 60.8039 100.75C68.115 86.4567 81.0038 78.4203 96.7897 76.5775C98.8245 76.34 100.836 76.0929 102.882 76.3864L103.055 76.4122C101.917 74.9498 100.429 74.0822 99.1734 72.7781C95.2207 68.6733 102.918 66.7888 105.915 66.8792C108.182 66.9474 116.936 69.5719 116.841 72.7198C116.119 73.8719 114.85 73.7334 113.728 74.169L112.949 76.6001C125.501 76.9625 137.709 83.1906 146.88 91.5471L152.279 96.9299C154.626 99.349 156.367 100.899 159.402 102.445C163.419 104.492 162.829 105.234 160.454 108.141L156.936 112.343L160.302 112.433C166.418 112.79 165.888 116.172 163.063 120.595C158.758 127.337 148.343 131.675 140.684 128.529ZM103.734 71.0636L103.617 71.2371C106.214 72.7162 106.625 74.855 108.162 77.0234C108.368 76.6763 108.601 76.3304 108.739 75.9502C109.163 74.7216 109.581 73.584 110.229 72.4555C107.988 71.4912 106.231 70.778 103.734 71.0636ZM102.816 79.5518C91.6126 81.5314 82.9273 82.3605 73.7118 90.4652C69.9608 93.7638 64.2116 100.75 63.0839 105.711C66.2609 111.647 88.7401 114.649 96.9099 115.119L109.663 115.307L115.866 115.117L123.379 114.282C129.777 113.529 136.229 112.544 142.208 110.018C146.086 108.379 145.516 109.045 144.762 105.129C144.234 102.387 144.584 98.7537 147.699 97.8898C143.323 93.5303 138.623 89.654 133.203 86.6658C128.019 83.8081 118.856 80.3979 112.78 80.4118C109.887 80.4184 107.55 82.2548 104.745 80.5781C104.212 80.2591 103.408 79.4614 102.816 79.5518ZM52.8507 93.9407L52.251 112.418C52.202 114.453 51.9469 116.365 51.9347 118.548C51.9255 120.155 51.3794 123.713 54.3954 122.536C54.6972 122.303 54.8957 122.147 55.0567 121.795L54.4425 112.203C54.1528 109.011 53.8665 106.599 53.7687 103.33L53.5469 95.0994C53.5439 94.3696 53.7947 93.7121 52.8507 93.9407ZM158.04 116.515C152.252 116.825 145.466 120 141.457 124.358C142.503 125.078 143.558 125.317 144.8 125.405C150.75 125.758 157.945 122.667 160.646 117.061L160.695 116.957C160.755 116.833 160.832 116.733 160.92 116.628L158.04 116.515Z" fill="black"/>
<path d="M56.9329 80.1874C56.0478 80.3461 55.0242 79.3885 54.6914 78.6587L54.7167 67.6503C54.7197 67.0633 54.6611 66.3716 54.9659 65.8486L55.038 65.7327C55.4511 65.0516 55.8859 64.776 56.6041 64.4951L56.9329 64.515C59.6326 64.885 58.7755 69.3913 58.7719 71.242L58.7587 75.5628C58.7544 76.5268 58.8397 77.6017 58.5701 78.5338L58.5276 78.672C58.262 79.563 57.8453 79.9181 56.9329 80.1874Z" fill="black"/>
<path d="M49.5108 80.2568C46.8697 80.6414 47.3203 77.2696 47.3154 75.6365L47.3121 67.452C47.3163 65.9925 47.4763 65.3383 48.8785 64.6095L49.0299 64.6062C51.6753 64.5367 51.1345 67.3914 51.1387 69.1603L51.1404 77.4349C51.1341 78.9447 51.0239 79.5847 49.5108 80.2568Z" fill="black"/>
<path d="M74.6109 103.038L74.3808 103.096C71.9813 103.641 71.3553 101.299 72.7611 99.2843C77.6028 92.3446 85.3102 86.5341 93.6468 85.0127C95.9028 84.5791 97.5502 87.4149 95.5187 88.6684C94.5866 89.2437 93.1021 89.3007 92.0472 89.6045C86.3233 91.2541 81.6941 94.9505 77.8243 99.4207C76.801 100.603 75.9271 102.195 74.6109 103.038Z" fill="black"/>
</svg>
