<svg width="148" height="148" viewBox="0 0 148 148" fill="none" xmlns="http://www.w3.org/2000/svg">
<path d="M72.9041 127.11C63.4958 127.109 56.1927 124.342 48.326 119.598C39.1239 114.048 33.3685 107.638 28.1125 98.093L25.7487 93.6123C20.8302 83.0659 20.2353 72.2628 23.5106 61.2544C25.7813 53.6225 29.5548 46.1422 34.9341 40.2446C41.865 32.646 53.1756 25.1209 63.1879 23.1754C65.4212 22.7416 67.7675 22.5182 70.0405 22.4394L74.2779 22.3623L75.1304 22.34C88.4342 22.2345 101.015 28.9324 110.321 38.1666C116.026 43.8262 119.979 50.7716 122.662 58.3293C127.357 71.554 126.698 82.3488 120.721 94.6571L118.697 98.7315C113.726 107.884 108.418 113.722 99.6839 119.188C90.2446 125.095 83.6922 127.058 72.9041 127.11ZM73.8915 25.4009L68.7912 25.5341C60.0392 26.1934 53.4693 29.1858 46.4981 34.2934C37.3397 41.0036 31.8313 47.4585 27.7138 58.3908C22.2047 73.0172 23.8114 84.8606 31.5418 98.0312C36.8737 107.116 42.7049 112.997 51.839 118.151C58.6573 122 65.3656 124.104 73.2598 124.079L77.145 124.027C85.3317 123.521 90.9648 120.993 97.9139 116.702C106.099 111.647 110.579 106.841 115.399 98.373C123.139 84.7748 125.273 73.3039 119.348 58.0086C116.833 51.5135 113.273 45.4341 108.337 40.4923C101.299 33.4445 91.8993 27.7033 82.0678 25.9862C79.3231 25.5069 76.6675 25.4317 73.8915 25.4009Z" fill="black"/>
<path d="M76.4092 118.167L76.2167 118.182C57.6045 119.451 41.385 107.791 33.5327 91.3811C28.249 80.3399 28.7569 68.495 33.6761 57.5356C40.3903 42.5772 54.192 32.2073 70.6991 31.2494C82.5743 30.7004 93.728 34.3292 102.626 42.5171C114.763 53.6853 120.84 71.3732 115.15 87.2804C109.304 103.624 94.1595 117.478 76.4092 118.167ZM71.6318 34.2117C69.0105 34.3947 66.4309 34.6493 63.867 35.2572C45.8084 39.5391 31.4515 58.3887 32.839 77.1796C34.1965 95.5681 50.8068 113.018 69.0532 114.916C71.2658 115.146 73.4731 115.128 75.6939 115.115C79.1191 114.963 82.4059 114.463 85.6821 113.414C98.0635 109.448 108.499 97.5712 112.62 85.2556C120.059 63.0283 102.71 38.7403 80.4713 34.7774C77.7133 34.286 74.6776 34.0693 71.8793 34.1944L71.6318 34.2117Z" fill="black"/>
<path d="M74.0297 43.6928C71.0816 43.904 70.7599 39.2651 73.1887 38.0959C76.4365 37.9504 76.2476 42.7329 74.0297 43.6928Z" fill="black"/>
<path d="M91.0232 47.7565C88.1987 47.8858 88.5259 44.1018 91.1604 43.2212C94.3427 42.9535 93.2085 47.1134 91.0232 47.7565Z" fill="black"/>
<path d="M56.5423 47.783C54.2693 47.7599 52.2529 44.0768 55.1066 43.3021C57.512 43.1735 59.1315 47.0174 56.5423 47.783Z" fill="black"/>
<path d="M62.0777 70.7374L57.5178 68.1485C56.5999 67.6273 55.581 67.1387 54.737 66.5076C52.9847 65.1971 54.3576 63.2456 56.1463 63.8949C56.7113 64.1 57.2649 64.437 57.8023 64.7089L61.3058 66.5087C63.9966 67.8953 66.8174 69.173 69.3988 70.7512C69.9877 70.122 70.572 69.7065 71.3545 69.3487C72.0732 69.0203 72.0895 69.2114 71.9698 68.356C71.837 67.4055 72.0139 66.6197 71.9972 65.6899C71.9882 65.1941 71.885 64.7001 71.8795 64.2034L71.8689 54.2504C71.8687 52.1372 71.1086 48.1759 73.3317 47.2708L73.4765 47.2618C76.4559 47.1277 75.5393 54.1043 75.5399 56.0447L75.5544 69.2298C78.0919 70.1602 79.4727 72.2211 79.273 74.9762C78.7532 82.1537 67.5738 81.2999 68.1906 74.0181C67.8758 73.6941 67.0113 73.4044 66.5798 73.1766L62.0777 70.7374ZM73.1433 71.7699C69.76 72.8838 70.6587 77.4436 74.2771 76.9117C77.6082 76.0418 76.5089 71.4029 73.1433 71.7699Z" fill="black"/>
<path d="M102.7 59.2687C99.7936 59.559 100.021 55.8358 102.49 54.9298C105.48 54.6137 105.188 58.4598 102.7 59.2687Z" fill="black"/>
<path d="M45.0128 59.2092C42.5178 59.6121 40.8542 55.9692 43.5316 55.0835C45.8633 54.9929 47.7546 58.056 45.0128 59.2092Z" fill="black"/>
<path d="M39.6442 76.3211C35.7287 76.2527 35.4715 72.5263 39.8491 72.2976C43.6484 72.3966 43.3775 75.5277 41.4103 76.153L41.289 76.1895C40.7586 76.3526 40.1938 76.3211 39.6442 76.3211Z" fill="black"/>
<path d="M107.979 76.3699C107.045 76.3868 105.984 76.4513 105.191 75.8563C103.292 74.4293 104.603 72.5885 106.816 72.3663C108.993 72.1986 111.415 73.5829 109.988 75.5363C109.538 76.1521 108.679 76.2786 107.979 76.3699Z" fill="black"/>
<path d="M44.2024 93.9465C41.5746 93.9201 41.3662 90.6653 44.4281 89.694C46.9375 89.5185 47.3994 93.2185 44.2024 93.9465Z" fill="black"/>
<path d="M103.07 93.873C100.56 93.4848 99.263 90.5023 102.097 89.6874L102.433 89.6835C103.623 89.7769 104.835 91.1417 104.648 92.3634L104.631 92.464C104.494 93.2875 103.832 93.6869 103.07 93.873Z" fill="black"/>
<path d="M55.7676 106.148C52.7292 106.177 53.516 102.263 56.1204 101.692C59.3431 101.987 57.9226 105.521 55.7676 106.148Z" fill="black"/>
<path d="M91.9132 106.109C89.8527 106.432 87.7757 102.932 90.4739 101.692C92.956 101.346 94.5874 104.98 91.9132 106.109Z" fill="black"/>
<path d="M73.8868 111.304C71.1138 111.289 70.7149 106.114 73.4992 105.527C76.2674 105.557 76.3271 110.581 73.8868 111.304Z" fill="black"/>
</svg>
