<svg width="161" height="162" viewBox="0 0 161 162" fill="none" xmlns="http://www.w3.org/2000/svg">
<path d="M81.6712 138.908L81.1546 138.974C77.3908 139.166 76.4288 137.052 74.4858 134.34L65.4236 120.974C57.9366 109.391 43.5044 85.8116 42.8475 71.8244C42.7423 69.5833 42.9534 67.4261 43.2944 65.2171C46.1627 46.6446 60.6618 33.0715 79.5144 32.2228C82.8616 32.1838 85.819 32.3964 89.0862 33.2019C105.775 37.3161 118.101 52.7773 118.205 70.0422C118.265 79.9221 112.122 92.4771 107.509 101.066L96.7498 119.252L86.644 134.369C85.2707 136.307 84.0687 138.229 81.6712 138.908ZM79.5215 35.1562C59.866 35.7207 45.2427 52.7269 45.8448 72.2699C46.2734 86.1776 65.0143 115.03 72.656 126.114L76.2361 131.356C77.3755 133.007 79.0401 136.439 81.4888 135.531C82.5679 134.8 83.3619 133.473 84.1124 132.423L102.613 103.703C107.214 95.6799 112.888 85.1165 114.691 75.8937C118.313 57.3758 104.795 39.1151 86.6266 35.6481L84.0481 35.2739C82.7012 34.9952 80.8917 35.0828 79.5215 35.1562Z" fill="black"/>
<path d="M81.9095 99.9092C80.7241 99.9146 79.5055 99.967 78.3246 99.8748C62.5373 98.6416 49.9077 83.8745 51.693 67.9879C53.2892 53.783 64.8246 42.2803 79.1866 41.7107C80.7239 41.6996 82.3374 41.6221 83.8661 41.7991C97.4373 43.3687 108.285 54.9489 109.299 68.6521C110.298 82.1399 101.397 95.1277 88.4787 98.8357C86.34 99.4496 84.1231 99.7516 81.9095 99.9092ZM79.6154 44.6485C66.6388 44.7893 55.8411 55.8412 54.6728 68.5863C53.2482 84.1304 65.9997 97.2028 81.283 96.9917L81.6447 96.9821C82.6035 97.0067 83.7288 96.8315 84.6787 96.6715C94.0742 95.0895 101.685 88.2893 104.909 79.3636C109.845 65.6989 101.89 50.1355 88.1017 45.7116C86.6343 45.2408 84.973 44.831 83.4372 44.7133L79.6154 44.6485Z" fill="black"/>
<path d="M80.9173 82.8073L80.6436 82.679C79.6692 83.0131 78.8329 83.7816 78.054 84.4346L75.159 86.8525C72.6961 88.7972 69.333 89.8543 67.1589 86.8925C64.6098 83.4201 68.751 78.0908 69.2918 74.3268C68.7608 73.789 68.1343 73.3673 67.5296 72.9195L62.7344 69.6106C59.4697 67.2042 59.6317 62.9408 63.449 61.6989C64.3799 61.396 65.3382 61.4496 66.3027 61.4529L70.2292 61.4742C70.9956 61.484 73.2072 61.8118 73.7137 61.0874L73.7661 61.0089C74.3189 60.1926 74.5407 59.2381 74.787 58.2944L75.8089 54.2882C76.4852 51.7653 77.2229 49.6241 80.1536 49.3095C85.3825 48.9761 85.2036 56.1988 86.6949 60.0519C87.3174 61.6602 88.0214 61.4861 89.5519 61.4719L93.8733 61.4458C95.6844 61.4372 97.4974 61.241 98.9922 62.4846C100.756 63.9523 101.24 66.4962 99.7591 68.3518C99.0634 69.2233 98.0927 69.7946 97.1704 70.389L93.8136 72.6405C91.4446 74.3023 91.2987 74.1362 92.3015 77.0201L93.6243 80.4512C93.988 81.3174 94.4389 82.2294 94.6416 83.151C95.443 86.791 91.8098 89.7842 88.3464 88.5036C87.2885 88.1125 86.3883 87.3048 85.5354 86.5897L82.9624 84.4643C82.3255 83.9264 81.7297 83.3437 81.0327 82.8825L80.9173 82.8073ZM80.009 52.3257C79.4441 52.6958 79.2899 53.6169 79.1383 54.2411L78.3138 57.9122C76.858 64.662 75.0209 65.0442 68.7364 64.6337L65.9282 64.561C62.1167 64.5053 63.0267 66.2927 65.5728 67.8537L69.117 70.1341C73.0183 72.9215 72.715 74.9832 71.1538 78.9433C70.6238 80.2874 67.7017 85.5648 70.9538 85.6995C73.2266 85.7934 76.646 79.382 80.9429 79.684L81.0548 79.6964C85.2416 80.2092 89.4699 89.0296 91.7542 84.0631C91.0502 81.7548 89.8696 79.6301 89.1963 77.3021C87.6185 71.8462 91.68 70.4437 95.3698 67.8985C96.4023 67.1862 98.6463 65.8393 96.6684 64.6395C91.8239 64.2396 85.5756 66.5878 83.6359 61.0269C83.1704 59.6922 81.9286 53.0552 81.3242 52.5847C80.9515 52.2946 80.4565 52.2409 80.009 52.3257Z" fill="black"/>
</svg>
