<svg width="199" height="199" viewBox="0 0 199 199" fill="none" xmlns="http://www.w3.org/2000/svg">
<path d="M118.903 87.4721C117.649 92.6265 115.422 98.3409 112.03 102.471C98.272 119.226 84.5824 102.938 80.9892 88.0911C80.1242 84.5175 79.3375 79.1806 79.0309 75.5178C78.1192 64.6337 85.8563 55.5049 96.6831 54.6489C100.412 54.2027 107.561 56.2661 110.217 59.1472C111.577 60.6223 110.648 63.7171 108.394 63.2311C107.415 63.0199 106.441 62.2012 105.598 61.6689C96.7938 56.1109 85.1657 61.0542 83.9499 71.859C87.4974 70.6693 88.8 71.5688 92.1444 72.1634C96.454 72.9298 100.861 71.6998 104.128 68.7869C106.409 66.7531 107.269 64.7086 110.787 65.4667C120.893 67.6442 120.706 79.4878 118.903 87.4721ZM109.818 70.2038C109.338 70.3251 108.994 70.7601 108.658 71.1043C103.502 76.384 96.4089 78.0429 89.2443 76.4537C87.5864 76.0858 87.1678 75.4512 86.2935 76.945C84.7581 79.5687 85.0354 85.3788 85.8271 88.2836C87.106 92.975 89.6258 97.9668 93.0822 101.422C101.022 108.986 107.932 101.77 111.465 94.3575C114.343 88.3194 118.223 76.8075 112.292 71.3384C111.602 70.7023 110.785 70.1917 109.818 70.2038Z" fill="black"/>
<path d="M72.7697 89.0243C70.7906 95.2847 65.9145 103.251 58.7495 104.069C50.8048 104.976 44.5552 96.5272 42.5108 89.8109C41.4682 86.3866 41.0572 82.7182 40.6884 79.1694C39.5886 68.5857 43.9999 58.8273 55.5574 57.758C58.3263 57.3951 67.8681 59.0145 66.4048 63.0853C65.5146 65.5625 64.1841 65.0693 62.3265 63.9898C55.804 60.1985 48.5197 63.4677 46.0396 70.3189C48.5135 69.7045 48.5128 69.7919 50.7684 70.4535C58.2956 72.6621 61.8937 64.699 66.7086 66.203C76.1574 69.1548 75.1536 81.5447 72.7697 89.0243ZM65.2531 70.8842C60.1351 73.3776 58.5191 75.7507 51.635 75.4525L49.6863 75.2976C47.7638 75.0492 47.1304 74.6723 46.345 76.9888C44.1572 83.442 47.3776 92.6184 52.1499 97.0583C53.8821 98.5474 55.7558 99.5909 58.1062 99.3903C66.9527 98.6351 73.9189 76.9217 67.003 71.5026C66.5136 71.1189 65.8952 70.6647 65.2531 70.8842Z" fill="black"/>
<path d="M157.244 88.374C155.647 93.4693 153.114 98.4916 148.704 101.707C144.481 104.786 139.652 104.887 135.465 101.819C130.174 97.9418 127.372 92.4124 126.076 86.092L125.324 81.311C125.015 79.4003 125.108 77.4172 124.918 75.489C124.063 66.8052 130.051 58.6928 138.892 57.8536C141.571 57.5109 148.621 58.9008 150.283 61.2497C151.355 62.7652 149.873 65.7511 147.921 64.9868C146.944 64.6044 146.038 63.916 145.08 63.4592C138.618 60.3781 131.854 64.1572 130.143 70.8241C132.485 70.0647 133.07 70.3225 135.307 70.6316C143.092 71.7071 145.792 65.0991 150.223 66.2778C153.03 67.0247 155.286 69.2348 156.696 71.7006C159.522 76.6414 158.642 83.1397 157.244 88.374ZM149.229 71.0784C148.342 71.4655 147.53 72.0059 146.685 72.4739C142.118 75.0003 139.078 75.7114 133.938 75.4353C132.409 75.3529 131.357 74.847 130.671 76.6177C128.34 82.635 132.336 92.8216 136.742 97.0295C149.084 107.356 158.988 78.1696 150.863 71.7084C150.486 71.4092 149.905 71.0498 149.403 71.0545L149.229 71.0784Z" fill="black"/>
<path d="M52.4413 137.576L52.4192 138.403C52.1409 140.554 49.7943 140.208 48.2017 140.121C42.9425 139.833 37.7243 138.888 32.6486 137.5C22.5001 134.724 19.0015 131.612 23.9332 121.132C27.5301 113.488 33.6203 107.691 41.2535 104.217C42.6601 103.577 45.1399 102.409 46.7599 102.764L46.8836 102.795C48.6162 103.22 49.8273 104.844 50.9743 106.111C57.7465 113.596 59.3031 111.473 65.2628 105.064C66.714 103.503 67.8971 102.097 70.0789 101.762C71.9595 101.697 74.762 101.874 76.205 103.238C77.0952 104.079 77.1593 105.292 76.2283 106.136C75.2666 107.008 74.1168 106.7 72.9688 106.535L70.9639 106.31C69.8936 106.768 68.9387 107.913 68.1592 108.759L65.6042 111.467C59.2434 117.959 54.1568 116.462 48.3823 110.047C47.6047 109.183 46.9029 108.266 46.077 107.444C37.4401 109.748 26.1688 120.36 26.4307 129.625C28.6401 132.797 41.6493 134.741 45.3653 135.208C46.7499 135.382 49.8982 135.175 51.0281 135.929L51.136 136.004C51.747 136.416 52.0738 136.79 52.3885 137.46L52.4413 137.576Z" fill="black"/>
<path d="M147.43 138.861L147.409 138.774C146.85 136.36 148.811 135.708 150.65 135.548L157.122 134.802C160.658 134.277 170.861 132.461 172.98 129.607C173.012 128.903 172.841 128.116 172.664 127.436C170.298 118.302 163.06 111.021 154.265 107.9C152.641 107.323 152.943 108.432 151.467 110.095C138.695 124.488 132.346 106.358 128.86 106.762C126.982 106.98 124.573 107.393 122.895 106.292C121.96 105.677 121.506 104.766 122.277 103.843C123.463 102.422 125.976 102.163 127.695 101.967C130.454 101.35 131.985 102.459 133.738 104.33L137.093 107.911C141.899 112.776 144.147 111.331 148.441 106.387C152.174 102.089 152.762 102.039 157.756 104.22C166.901 108.215 174.394 115.986 177.058 125.73C178.831 132.217 175.764 134.523 169.75 136.58C164.405 138.409 158.588 139.506 152.966 140.036C150.948 140.226 148.715 140.853 147.43 138.861Z" fill="black"/>
<path d="M124.562 147.938L115.506 149.114C112.789 149.444 110.099 149.569 107.37 149.688L104.363 149.899L87.9477 149.576L80.9743 148.832C76.5425 148.317 72.0778 147.71 67.7259 146.713C59.2581 144.773 54.919 142.327 56.9991 133.444C60.0889 120.251 70.4904 107.243 84.7111 105.758C87.8566 105.61 88.7313 107.364 90.5863 109.654C92.3639 111.849 94.168 114.081 96.3816 115.855C99.5966 118.431 101.697 117.957 104.683 115.075C106.471 113.35 111.134 106.577 112.19 105.97C113.854 105.012 118.639 107.141 120.241 107.775C127.363 110.595 132.745 114.433 136.864 121.089C139.298 125.021 143.78 134.564 142.744 139.193C141.516 144.674 135.003 145.99 130.277 146.908L124.562 147.938ZM85.1468 110.513C72.8414 112.291 64.0748 123.058 61.4138 134.685C60.3965 139.131 61.2951 140.099 65.8795 141.391C67.9314 141.97 70.0439 142.381 72.1409 142.76L89.0848 144.94L94.0899 145.026C94.9158 145.046 95.7295 145.187 96.5569 145.203L110.32 144.938C114.87 144.64 119.427 143.94 123.937 143.283C127.041 142.817 136.162 141.429 137.916 139.014C139.067 137.43 137.378 133.469 136.825 131.87C132.696 119.927 125.871 114.141 114.179 110.573C105.004 124.69 97.2795 126.848 86.1116 111.399C85.9023 111.11 85.541 110.453 85.1468 110.513Z" fill="black"/>
</svg>
