<svg width="190" height="190" viewBox="0 0 190 190" fill="none" xmlns="http://www.w3.org/2000/svg">
<path d="M55.2667 75.9181L46.6834 138.892C46.3426 142.322 44.7323 148.026 49.2567 149.441L49.3556 149.47C51.1395 150.053 53.4112 149.805 55.2735 149.831L59.6999 149.981C60.3866 150.007 61.0581 150.131 61.7409 150.182L70.4269 151.002L85.8611 153.224L99.0385 155.697L119.146 158.58C123.566 159.033 123.638 156.222 124.053 153.188L124.933 147.157C125.213 145.108 125.409 142.738 126.04 140.771C126.893 138.11 130.465 138.171 130.439 140.876C130.426 142.263 130.122 143.724 129.92 145.099L128.521 153.698C127.921 157.134 127.929 159.802 124.442 161.835C122.14 163.176 119.504 163.057 116.941 162.828L105.474 161.279L74.3498 156.004L56.6471 154.311C54.9033 154.183 53.1247 154.277 51.3746 154.208C46.9672 154.035 42.309 151.552 41.663 146.765C41.4967 145.533 41.6048 144.197 41.6846 142.958L46.8799 101.643C47.1884 99.5576 46.7045 99.0788 46.0953 97.1031L32.8496 56.058C32.4622 54.9204 32 53.7189 31.8417 52.5249C30.9716 45.958 36.4578 44.2563 41.2604 42.8325L102.508 25.639C105.378 24.849 108.252 23.8714 111.214 23.5078C115.095 22.8911 118.329 26.2444 119.52 29.6031L123.378 41.7944C123.903 43.4922 124.685 45.3343 125.008 47.0689C125.517 49.8085 122.377 50.7356 120.895 48.6035C120.013 47.3343 119.675 45.5074 119.245 44.0298L115.921 32.9223C115.399 31.2345 114.857 29.1415 113.17 28.2385L113.031 28.1672C111.431 27.3319 106.747 29.2059 105.048 29.6637L38.8987 48.1834C34.6917 49.4855 36.7601 53.4601 37.7044 56.2833L45.3991 79.5108L48.4632 89.4134L49.6522 81.8603L54.2804 58.1079C55.9171 50.2811 59.778 51.6462 66.6076 51.1237L76.3647 50.4696L81.4884 50.4171C82.3541 50.3812 83.1898 50.1829 84.0546 50.1523L106.259 50.4064L122.788 51.5289L138.114 53.1531C147.033 54.3923 148.396 57.8033 146.533 66.8099L143.57 82.6355C142.998 85.554 139.439 85.1559 139.066 83.1977C138.805 81.8324 139.318 79.9434 139.56 78.6075L141.436 69.1119C141.874 67.1267 142.461 65.105 142.761 63.0978C143.529 57.9678 140.589 57.9886 136.227 57.5216L109.722 54.9519L103.383 54.6437L83.7272 54.6597C82.9485 54.6862 82.1775 54.8444 81.4089 54.872L74.9079 54.9519C74.0989 54.9893 73.3187 55.1591 72.5097 55.2006L68.5741 55.3678C66.6557 55.4904 60.6659 55.594 59.8189 56.161C59.2973 56.5105 59.0851 58.2789 58.9138 58.9113L57.5419 63.9071L55.2667 75.9181Z" fill="black"/>
<path d="M111.582 147.821C108.863 148.776 106.488 151.264 104.58 147.685C104.823 146.635 105.336 145.653 105.715 144.646C106.535 142.471 107.142 140.159 107.486 137.86C107.844 135.47 108.196 133.819 109.705 131.87L145.176 89.7097C147.377 87.0094 149.546 84.8297 153.222 84.3639C156.673 84.1677 159.861 86.1936 161.124 89.4672C163.245 94.96 158.533 99.4057 155.359 103.21L127.333 136.192C121.438 142.466 119.903 144.702 111.582 147.821ZM153.475 88.904C150.18 89.469 147.67 93.9444 145.648 96.3737L115.2 132.37C112.537 135.491 112.732 135.34 111.876 139.448L111.007 143.088L113.58 141.991C116.258 140.635 117.169 139.886 119.306 137.862L122.144 135.198C125.445 131.864 128.472 128.185 131.511 124.612L150.911 101.337C152.52 99.3849 154.29 97.5369 155.783 95.4958C157.869 92.6455 157.417 88.6152 153.475 88.904Z" fill="black"/>
<path d="M116.783 100.479C114.327 100.635 111.985 100.292 109.565 100.229L101.37 100.183C100.127 100.139 98.8972 99.8999 97.647 99.8343L78.8973 99.438C77.8187 99.4172 76.7761 99.1737 75.7029 99.1598L70.5809 99.1316C69.4014 99.1268 67.8411 99.3029 66.7432 98.8837L66.6111 98.8303C64.3296 97.9227 64.783 95.4572 66.7931 94.5603L77.0884 94.6559L89.3256 95.0107C90.8447 95.0555 92.3475 95.301 93.8725 95.3322L101.366 95.3972C102.682 95.4524 103.97 95.6908 105.292 95.7146L111.695 95.7733C112.932 95.8167 116.675 95.9037 117.34 96.379L117.453 96.4621C119.084 97.63 118.751 99.7987 116.783 100.479Z" fill="black"/>
<path d="M107.224 112.324C105.379 112.518 103.486 112.07 101.634 112.053L77.5126 111.359L67.0567 111.319C63.1893 111.269 63.1439 107.692 65.6875 106.706C67.1119 106.587 68.5313 106.794 69.9515 106.821L78.6829 106.864C80.2409 106.913 81.7953 107.187 83.3572 107.222L92.834 107.272C94.2522 107.311 95.668 107.559 97.0877 107.585L102.753 107.612C104.255 107.618 106.051 107.467 107.478 108C109.917 108.909 109.14 111.441 107.224 112.324Z" fill="black"/>
<path d="M101.965 124.226L98.1548 124.087C97.6741 124.05 97.2 123.965 96.7167 123.953L87.4462 123.897L74.6895 123.525C73.7202 123.507 72.7779 123.334 71.8098 123.324L65.201 123.284C64.8359 123.265 64.4918 123.245 64.1955 123.004L64.1071 122.929C61.9612 121.147 63.0445 118.981 65.4569 118.69C68.3251 118.915 71.2041 118.739 74.0734 118.841L85.3654 119.163C86.7049 119.212 88.0479 119.443 89.3877 119.465L96.4697 119.491C98.1907 119.495 102.079 119.208 103.43 120.288C105.132 121.649 103.942 124.115 101.965 124.226Z" fill="black"/>
<path d="M95.5414 136.176L89.7339 136.064C88.9146 136.025 88.1059 135.845 87.3002 135.804L78.5138 135.759C77.6143 135.743 76.7216 135.565 75.8301 135.558L67.7008 135.54C66.3883 135.538 64.9229 135.658 63.6321 135.466L63.5039 135.445C61.5558 135.15 60.9991 131.463 64.1451 130.933L89.4507 131.397C90.179 131.423 90.8929 131.584 91.6143 131.613C93.3297 131.684 97.1882 130.959 97.6872 133.387L97.708 133.501C98.0221 135.095 96.9364 135.942 95.5414 136.176Z" fill="black"/>
</svg>
