<svg width="212" height="212" viewBox="0 0 212 212" fill="none" xmlns="http://www.w3.org/2000/svg">
<path d="M79.3815 164.644L66.9229 165.611C64.8824 165.772 62.8945 165.953 60.8448 165.971C55.3745 166.02 50.6264 162.775 50.0477 157.026C49.9079 155.636 50.042 154.174 49.7273 152.809C49.259 150.777 48.565 148.796 47.9058 146.819L31.1255 94.513C28.2686 84.5209 31.1516 80.1149 41.2722 77.3533L48.2745 75.4496C49.0907 75.2753 48.8323 74.8292 49.1112 74.0722C51.5857 67.3595 58.0503 67.3601 63.9651 67.0779L67.8119 66.7814C74.8116 66.4207 75.4459 67.0451 81.7122 63.9562L121.843 45.6308C124.728 44.3074 127.449 42.7943 130.643 42.3756C136.706 41.7485 140.325 46.1737 142.433 51.3704C144.833 50.4144 147.378 49.4117 149.952 49.0788C155.44 48.3689 159.966 51.6566 161.503 56.7658L162.247 59.7175C162.635 61.5348 162.899 60.6656 164.677 61.2009C173.242 63.779 172.69 70.5703 173.145 77.6183L178.757 142.189C179.176 145.714 179.163 149.245 176.846 152.142C173.456 156.381 168.601 156.075 163.7 156.507L122.575 160.928L79.3815 164.644ZM130.625 46.7166C128.145 47.1512 125.918 48.459 123.655 49.5024L94.2079 62.9005C92.6696 63.5643 91.0627 64.1265 89.5992 64.9486L97.1206 64.2533L102.242 63.7952C106.31 63.4832 107.876 63.1754 111.695 61.8856L128.585 56.1606C131.837 55.0595 135.144 53.9896 138.299 52.6284C136.876 48.88 134.84 46.2857 130.625 46.7166ZM150.417 53.3476C146.589 53.8776 142.899 55.6524 139.291 56.9903L123.792 62.1993C123.077 62.4205 122.437 62.7051 121.703 62.8932L126.522 62.6607C127.44 62.6312 128.685 62.7813 129.55 62.5967L144.301 62.0326C145.06 61.9863 145.816 61.7951 146.578 61.7623C150.403 61.5984 154.414 61.5185 158.231 61.2062C157.459 56.8857 155.611 52.5821 150.417 53.3476ZM160.897 65.1633L144.089 66.3468L131.931 66.7808C130.928 66.8348 129.956 67.0488 128.938 67.069L114.204 67.1206L64.4272 71.3212C57.2477 71.9218 52.6927 70.7203 52.6841 80.0248L52.69 90.6801C52.6811 94.0738 53.0233 97.2823 53.0326 100.748L53.0518 110.99C53.0644 112.162 53.2737 113.317 53.2949 114.497L53.3366 127.568C53.3476 128.555 53.5066 129.536 53.5294 130.528L53.7391 147.992C53.8792 155.422 52.9683 162.277 62.45 161.667L65.8102 161.397L115.831 157.305L164.232 152.177C169.192 151.651 175.077 151.924 174.63 145.147L169.832 91.3009L168.682 73.8778C168.4 68.9852 167.141 64.5836 160.897 65.1633ZM48.2228 80.2613C46.1303 80.5091 44.2991 81.0083 42.4885 81.4661C33.9724 83.6189 33.0677 85.8803 35.2948 93.5411L45.704 126.523L49.1907 136.847L48.4494 80.2766C48.3739 80.2693 48.2963 80.2441 48.2228 80.2613Z" fill="black"/>
<path d="M79.2157 146.261C78.0686 146.397 76.7651 146.499 75.6326 146.314L75.4633 146.285C67.6123 145.062 67.9747 137.157 67.7972 131.332C67.7674 130.353 67.5905 129.388 67.5504 128.411L67.0263 114.439L66.5898 104.996C66.5338 103.808 66.2999 102.644 66.2678 101.445L66.069 94.1537C65.8965 91.7899 66.6964 89.3257 68.2341 87.5287C71.8033 83.3569 77.462 83.7369 82.399 83.2284L146.231 77.5773C150.75 77.3507 155.066 79.4233 156.495 83.9389C157.046 85.6826 156.983 87.2461 157.078 89.0345L157.41 97.4963C157.455 98.34 157.647 99.1572 157.691 99.995L157.825 104.866C157.876 105.709 158.08 106.54 158.112 107.377C158.183 109.226 157.993 111.252 158.27 113.069L158.429 114.496C158.715 116.038 158.566 117.759 158.658 119.334L159.095 127.272C159.726 138.254 156.2 139.801 145.986 140.787L105.792 144.819L84.8688 146.111L79.2157 146.261ZM144.563 81.8805L82.985 87.4416C80.4224 87.7264 77.7201 87.6814 75.2019 88.2263C70.6409 89.2131 70.2521 92.0082 70.3627 95.7218L71.1471 111.006L71.9312 128.049C71.9765 129.471 71.8364 131.088 72.0825 132.478L72.1521 132.424C73.1608 131.655 74.0171 131.143 74.9561 130.19C81.9886 123.055 87.859 106.164 99.2888 119.57L102.474 123.223C103.957 124.837 105.498 126.33 107.159 127.761L111.894 131.396C114.858 133.475 112.693 136.195 110.064 135.097C106.056 133.423 100.521 127.689 97.762 124.536L95.3068 121.602C93.7056 119.665 92.5677 118.452 89.9555 119.483C86.2604 120.94 82.9065 127.486 80.2982 130.609C78.0238 133.331 75.4129 135.882 72.4208 137.793C73.4655 142.677 77.4743 142.409 81.5871 141.976L113.777 139.94L136.02 137.609C136.861 137.522 142.936 137.02 143.239 136.787C141.855 132.765 139.723 129.131 137.632 125.451C134.483 119.91 129.087 108.787 120.933 111.609C114.966 113.674 114.135 120.29 111.194 122.355C110.019 123.181 108.296 122.359 107.923 121.056C107.67 120.175 108.422 119.065 108.855 118.341C111.5 113.92 114.872 108.688 120.182 107.338C130.601 104.688 136.389 114.672 140.85 122.33C142.403 124.994 143.944 127.654 145.258 130.447L147.245 135.038C147.399 135.446 147.391 136.374 147.886 136.334C153.425 135.88 155.101 134.592 154.894 129.221C154.768 125.949 154.522 122.765 154.397 119.472L153.674 107.863L153.557 102.302C153.517 101.422 153.343 100.562 153.281 99.6856L152.92 92.4911C152.495 84.2294 153.675 81.7735 144.563 81.8805Z" fill="black"/>
<path d="M106.189 104.447C97.7904 106.071 94.4173 92.084 104.216 90.5053C112.472 89.3436 115.675 102.349 106.189 104.447ZM104.466 94.8367C101.098 96.2309 102.263 100.604 105.763 100.069C108.879 98.4914 108.13 94.6333 104.466 94.8367Z" fill="black"/>
</svg>
