<svg width="80" height="80" viewBox="0 0 80 80" fill="none" xmlns="http://www.w3.org/2000/svg">
<path d="M42.5952 30.8862C41.7271 28.5561 40.9467 25.6351 40.7584 23.1557C37.5491 26.8546 34.6264 30.3942 32.3322 34.7286L30.9977 37.3903C29.7792 40.1163 28.8431 43.1753 28.4207 46.1406C31.7664 45.6448 33.7619 45.0502 36.4427 48.0054C45.1833 57.6411 30.1913 77.3591 18.8094 64.3312C14.6766 59.6008 13.4788 51.8131 18.6651 47.3722C20.2588 46.0074 21.9372 45.5471 23.9812 45.7516L26.7416 46.0992L27.7727 41.4452C28.9556 37.3039 30.9567 33.3526 33.3657 29.7943L36.4439 25.6798L40.2163 21.1747C39.7981 21.4208 39.3996 21.8207 39.0099 22.1189C33.6279 26.2387 26.7304 24.1757 22.3437 19.6273C20.7134 17.9369 23.1687 17.3096 24.5308 16.4854L27.3312 14.7287C28.4257 14.1123 29.6196 13.6541 30.8461 13.3832L31.9352 13.1902C32.3981 13.0978 32.8971 13.1228 33.3678 13.1199C36.3038 13.1439 38.6816 13.8574 41.0812 15.6808C41.3134 15.8573 41.5873 16.0334 41.7904 16.2399L41.9216 14.6488C42.1119 12.9512 42.8199 13.2746 44.1988 13.2768C44.8871 13.2779 45.6544 13.2207 46.3281 13.3492L47.0113 13.4328C54.2012 14.3096 60.4579 18.6104 63.7596 25.0994C64.0111 25.5937 64.7363 26.6639 64.0426 27.0689C63.1102 27.6131 59.0684 28.0567 57.9369 28.1291L55.8202 28.1619C51.0871 28.1648 46.0954 26.9734 43.2604 22.8113C42.9756 22.3931 42.4337 21.4706 42.3319 20.9572L42.3244 20.9171C42.2971 26.3224 44.3551 31.7193 46.9278 36.4053L49.5171 40.7188L52.3754 39.3811C53.8828 38.8344 55.4744 38.7817 56.9819 39.4248L58.1221 39.9736C64.2879 43.4868 64.7524 52.2621 61.5064 57.9044C60.0327 60.4663 57.5612 62.9958 54.6362 63.7722C52.1861 64.4224 48.7388 63.4278 46.6509 62.2046C43.4238 60.3138 40.6762 57.1974 39.7291 53.5296C39.0267 50.8092 39.0046 48.0311 40.4731 45.5443C41.5208 43.7701 43.0891 42.3964 45.1053 41.8709L47.9773 41.2604C47.6166 40.8217 47.3171 40.2642 47.0107 39.7822C45.2418 36.9987 43.7379 33.9803 42.5952 30.8862ZM32.6648 14.8123C30.7038 15.0057 29.0284 15.6209 27.3541 16.6396L23.8658 18.8038C25.4219 20.3431 27.3111 21.4351 29.3879 22.1152C33.4747 23.4534 36.4268 22.4692 39.5046 19.3442L39.7437 19.0979L33.7589 20.9483C33.1052 21.1494 30.7159 22.2022 30.4377 21.0646C30.1934 20.0666 31.3953 19.8566 32.0731 19.6541L33.9914 19.0681C34.6606 18.8689 35.3389 18.7184 35.9461 18.3609C34.7194 17.9516 33.4519 17.8736 32.1757 17.7298C31.7696 17.6841 31.2766 17.6916 30.8942 17.5554C30.2047 17.3101 29.7744 16.4024 30.6868 16.0864C31.5013 15.8043 34.7546 16.3088 35.5659 16.4953C36.4618 16.7013 37.4552 17.0856 37.9516 17.9093C38.0824 17.9411 40.1487 17.3339 40.3496 17.2762C39.0892 15.9102 36.2223 14.8792 34.3943 14.8082L32.6648 14.8123ZM43.7212 14.9413L43.5676 14.9804C43.4887 17.6323 43.4112 20.7279 45.3549 22.7926C48.7196 26.3663 54.1108 26.8914 58.7488 26.3889L61.6699 25.9868L62.3323 25.9048C58.8658 19.3087 52.3387 15.1354 44.9209 14.9493C44.5271 14.9394 44.1143 14.9077 43.7212 14.9413ZM54.0468 40.6357C52.7587 40.8448 51.5961 41.5886 50.4137 42.1049C50.6853 42.6406 51.4371 43.6201 51.5509 44.0314C51.7207 44.6439 51.0809 45.3411 50.4562 45.1079C49.6854 44.8204 49.1639 42.7878 48.7994 42.8387C45.4522 43.3062 42.9374 43.6887 41.4633 47.2757C39.4136 52.2634 42.8698 57.9486 47.1059 60.5602C50.6743 62.7194 54.0426 63.2078 57.2837 60.4277C60.9543 57.2791 62.7267 52.1022 61.5393 47.3722C60.7127 44.0792 57.8208 40.3046 54.0468 40.6357ZM22.6743 47.3598C21.0769 47.4803 19.8149 48.3747 18.7919 49.5646C14.9238 54.0633 17.3396 61.1177 21.4168 64.5926C25.1884 67.8069 28.8707 67.8352 32.6709 64.7344C36.8842 61.2406 39.3721 54.1381 35.5028 49.5101C34.7166 48.5697 33.5857 47.4842 32.2943 47.3667C31.5989 47.3034 28.4712 47.7277 28.2822 47.8807L28.2809 49.3466C28.2799 49.5618 28.3097 49.8401 28.2497 50.0469C28.0723 50.6587 27.2647 50.8958 26.8182 50.3988C26.5239 50.0712 26.5912 49.6356 26.5927 49.2296L26.5978 48.1354C26.6001 47.7261 26.2151 47.8419 25.8832 47.7798C25.1472 47.6422 24.3892 47.4521 23.6433 47.3904L22.6743 47.3598Z" fill="black"/>
<path d="M47.22 47.3023C46.7228 47.0358 46.2032 46.6325 46.4555 46.0098C47.24 44.0728 50.3836 49.351 53.9291 43.0285C54.2441 42.4667 54.365 41.8928 55.011 41.6447C55.9442 41.6934 56.1137 42.4604 55.7503 43.1865C54.063 46.5584 51.0826 49.2528 47.22 47.3023Z" fill="black"/>
<path d="M22.9118 51.1247C21.4958 49.4128 22.8294 48.6984 23.5863 49.2477C23.8251 49.4209 23.9759 49.7488 24.1494 49.9859C25.7978 52.2395 28.5443 52.124 30.3786 50.0578C30.8186 49.562 31.1684 48.6617 31.7938 48.4243L31.8443 48.4058C34.6079 48.3434 30.9578 52.821 27.967 53.2789C25.8918 53.5967 24.3155 52.5785 22.9118 51.1247Z" fill="black"/>
</svg>
